<svg width="32" height="32" viewBox="0 0 32 32" fill="none" xmlns="http://www.w3.org/2000/svg">
<path d="M29.3332 16.0003C29.3332 23.3641 23.3636 29.3337 15.9998 29.3337C8.63604 29.3337 2.6665 23.3641 2.6665 16.0003C2.6665 8.63653 8.63604 2.66699 15.9998 2.66699C23.3636 2.66699 29.3332 8.63653 29.3332 16.0003Z" fill="white"/>
<path fill-rule="evenodd" clip-rule="evenodd" d="M22 13.3333L14.6667 20.6667L10 16L11.3333 14.6327L14.6667 18L20.6667 12L22 13.3333Z" fill="#0D81EF"/>
<path fill-rule="evenodd" clip-rule="evenodd" d="M15.9998 26.667C21.8909 26.667 26.6665 21.8914 26.6665 16.0003C26.6665 10.1093 21.8909 5.33366 15.9998 5.33366C10.1088 5.33366 5.33317 10.1093 5.33317 16.0003C5.33317 21.8914 10.1088 26.667 15.9998 26.667ZM15.9998 29.3337C23.3636 29.3337 29.3332 23.3641 29.3332 16.0003C29.3332 8.63653 23.3636 2.66699 15.9998 2.66699C8.63604 2.66699 2.6665 8.63653 2.6665 16.0003C2.6665 23.3641 8.63604 29.3337 15.9998 29.3337Z" fill="#0D81EF"/>
</svg>
