<svg width="160" height="160" viewBox="0 0 160 160" fill="none" xmlns="http://www.w3.org/2000/svg">
<g filter="url(#filter0_ii_680_34098)">
<path fill-rule="evenodd" clip-rule="evenodd" d="M80.6041 23.6535C77.339 23.6535 74.6921 26.3004 74.6921 29.5655C74.6921 32.8306 77.339 35.4775 80.6041 35.4775C83.8692 35.4775 86.5161 32.8306 86.5161 29.5655C86.5161 26.3004 83.8692 23.6535 80.6041 23.6535ZM64.0386 29.5655C64.0386 20.4166 71.4552 13 80.6041 13C89.753 13 97.1696 20.4166 97.1696 29.5655C97.1696 38.7144 89.753 46.131 80.6041 46.131C71.4552 46.131 64.0386 38.7144 64.0386 29.5655Z" fill="#FCD316"/>
</g>
<g filter="url(#filter1_ii_680_34098)">
<path fill-rule="evenodd" clip-rule="evenodd" d="M79.9023 137.739C58.4525 137.739 20 136.613 20 120.222C20 108.979 24.0972 104.471 28.1569 100.004C31.4954 96.3301 34.8086 92.6845 35.7967 85.3442C35.9901 83.9074 36.1713 82.2717 36.3694 80.4834C38.4142 62.0267 42.2592 27.3188 79.9023 27.3188C117.545 27.3188 121.39 62.0267 123.435 80.4834C123.633 82.2717 123.814 83.9074 124.008 85.3442C124.996 92.6845 128.309 96.3301 131.648 100.004C135.707 104.471 139.805 108.979 139.805 120.222C139.805 136.613 101.352 137.739 79.9023 137.739Z" fill="#FCD316"/>
</g>
<g filter="url(#filter2_i_680_34098)">
<path fill-rule="evenodd" clip-rule="evenodd" d="M131.88 59.6066C140.704 53.1669 142.636 40.7938 136.196 31.9705C132.874 27.4187 127.99 24.595 122.811 23.9144C121.079 23.6891 121.437 23.7415 119.701 23.5444L117.499 24.0362C114.367 24.4684 111.293 25.6598 108.56 27.6546C99.737 34.0942 97.8046 46.4673 104.244 55.2906C106.332 58.1514 109.044 60.2878 112.056 61.6493L112.984 62.4737C119.94 63.6275 125.771 64.0658 131.88 59.6066Z" fill="#FF414B"/>
</g>
<g filter="url(#filter3_ii_680_34098)">
<path d="M133.569 31.5603C140.008 40.3836 138.076 52.7566 129.253 59.1963C120.43 65.6359 108.056 63.7036 101.617 54.8803C95.1772 46.057 97.1095 33.6839 105.933 27.2443C114.756 20.8046 127.129 22.737 133.569 31.5603Z" fill="#FF414B"/>
</g>
<g filter="url(#filter4_ii_680_34098)">
<path fill-rule="evenodd" clip-rule="evenodd" d="M128.563 34.2195C129.366 35.1306 129.366 36.6078 128.563 37.5189L116.485 51.2219C115.281 52.5886 113.328 52.5885 112.123 51.2218L106.592 44.9462C105.789 44.035 105.789 42.5578 106.592 41.6468C107.395 40.7357 108.697 40.7358 109.5 41.6469L114.304 47.0976L125.655 34.2195C126.458 33.3084 127.76 33.3084 128.563 34.2195Z" fill="white"/>
</g>
<g filter="url(#filter5_f_680_34098)">
<path d="M137.537 124.19C137.537 132.107 111.732 136.527 79.9007 136.527C48.0693 136.527 22.2651 132.107 22.2651 124.19C22.2651 116.274 48.0693 107.858 79.9007 107.858C111.732 107.858 137.537 116.274 137.537 124.19Z" fill="#EBC414"/>
</g>
<g opacity="0.8" filter="url(#filter6_f_680_34098)">
<path d="M64.7149 88.1329C58.4796 88.8605 49.3082 91.0935 45.2257 92.3587C44.5587 92.5654 43.8628 92.069 43.9103 91.3724C44.247 86.4361 46.2537 82.8776 47.3611 63.0688C47.8977 53.4681 58.3643 47.3089 64.544 46.2419C65.1189 46.1426 65.615 46.6035 65.615 47.187L65.6149 87.1286C65.6149 87.6436 65.2264 88.0732 64.7149 88.1329Z" fill="url(#paint0_linear_680_34098)"/>
</g>
<g opacity="0.8" filter="url(#filter7_f_680_34098)">
<path d="M117.641 107.377C123.477 108.212 133.546 114.285 138.059 117.562C138.757 118.068 139.784 117.561 139.703 116.702C138.537 104.296 127.708 100.295 123.876 93.0148C120.958 87.4711 121.727 80.4422 120.025 71.4697C119.682 69.6626 118.066 68.4091 116.226 68.4092L112.205 68.4094C111.507 68.4095 111.012 69.1055 111.224 69.7701C112.269 73.0473 114.733 81.9005 114.733 92.5485C114.733 96.873 109.131 106.161 117.641 107.377Z" fill="url(#paint1_linear_680_34098)"/>
</g>
<g filter="url(#filter8_di_680_34098)">
<ellipse cx="79.9013" cy="127.905" rx="52.6816" ry="9.8339" fill="#FCE166"/>
</g>
<mask id="mask0_680_34098" style="mask-type:alpha" maskUnits="userSpaceOnUse" x="60" y="108" width="39" height="39">
<circle cx="79.1696" cy="127.298" r="19.0607" fill="#D9D9D9"/>
</mask>
<g mask="url(#mask0_680_34098)">
<g filter="url(#filter9_i_680_34098)">
<path d="M132.583 126.652C132.583 131.392 108.682 146.77 79.199 146.77C49.7158 146.77 25.8149 131.392 25.8149 126.652C25.8149 121.913 49.7158 118.071 79.199 118.071C108.682 118.071 132.583 121.913 132.583 126.652Z" fill="url(#paint2_radial_680_34098)"/>
</g>
</g>
<g opacity="0.8" filter="url(#filter10_f_680_34098)">
<path d="M87.1793 137.592C89.044 136.528 90.3849 134.507 90.933 132.808C91.1659 132.086 92.035 131.561 92.717 131.894L93.9623 132.501C94.2676 132.65 94.4813 132.944 94.4654 133.283C94.4115 134.441 93.9119 136.318 92.9574 137.855C92.0252 139.357 90.3694 140.776 89.1556 141.464C88.7652 141.685 88.2912 141.537 88.0298 141.173L86.6954 139.311C86.2899 138.746 86.5748 137.936 87.1793 137.592Z" fill="url(#paint3_linear_680_34098)"/>
</g>
<defs>
<filter id="filter0_ii_680_34098" x="64.0386" y="11" width="33.1309" height="37.1309" filterUnits="userSpaceOnUse" color-interpolation-filters="sRGB">
<feFlood flood-opacity="0" result="BackgroundImageFix"/>
<feBlend mode="normal" in="SourceGraphic" in2="BackgroundImageFix" result="shape"/>
<feColorMatrix in="SourceAlpha" type="matrix" values="0 0 0 0 0 0 0 0 0 0 0 0 0 0 0 0 0 0 127 0" result="hardAlpha"/>
<feOffset dy="-2"/>
<feGaussianBlur stdDeviation="2"/>
<feComposite in2="hardAlpha" operator="arithmetic" k2="-1" k3="1"/>
<feColorMatrix type="matrix" values="0 0 0 0 0 0 0 0 0 0 0 0 0 0 0 0 0 0 0.25 0"/>
<feBlend mode="normal" in2="shape" result="effect1_innerShadow_680_34098"/>
<feColorMatrix in="SourceAlpha" type="matrix" values="0 0 0 0 0 0 0 0 0 0 0 0 0 0 0 0 0 0 127 0" result="hardAlpha"/>
<feOffset dy="2"/>
<feGaussianBlur stdDeviation="2"/>
<feComposite in2="hardAlpha" operator="arithmetic" k2="-1" k3="1"/>
<feColorMatrix type="matrix" values="0 0 0 0 1 0 0 0 0 1 0 0 0 0 1 0 0 0 0.3 0"/>
<feBlend mode="normal" in2="effect1_innerShadow_680_34098" result="effect2_innerShadow_680_34098"/>
</filter>
<filter id="filter1_ii_680_34098" x="16" y="23.3188" width="125.805" height="116.42" filterUnits="userSpaceOnUse" color-interpolation-filters="sRGB">
<feFlood flood-opacity="0" result="BackgroundImageFix"/>
<feBlend mode="normal" in="SourceGraphic" in2="BackgroundImageFix" result="shape"/>
<feColorMatrix in="SourceAlpha" type="matrix" values="0 0 0 0 0 0 0 0 0 0 0 0 0 0 0 0 0 0 127 0" result="hardAlpha"/>
<feOffset dx="-4" dy="-4"/>
<feGaussianBlur stdDeviation="5"/>
<feComposite in2="hardAlpha" operator="arithmetic" k2="-1" k3="1"/>
<feColorMatrix type="matrix" values="0 0 0 0 1 0 0 0 0 1 0 0 0 0 1 0 0 0 0.2 0"/>
<feBlend mode="normal" in2="shape" result="effect1_innerShadow_680_34098"/>
<feColorMatrix in="SourceAlpha" type="matrix" values="0 0 0 0 0 0 0 0 0 0 0 0 0 0 0 0 0 0 127 0" result="hardAlpha"/>
<feOffset dx="2" dy="2"/>
<feGaussianBlur stdDeviation="3"/>
<feComposite in2="hardAlpha" operator="arithmetic" k2="-1" k3="1"/>
<feColorMatrix type="matrix" values="0 0 0 0 1 0 0 0 0 1 0 0 0 0 1 0 0 0 0.5 0"/>
<feBlend mode="normal" in2="effect1_innerShadow_680_34098" result="effect2_innerShadow_680_34098"/>
</filter>
<filter id="filter2_i_680_34098" x="99.4404" y="23.5444" width="40.5596" height="39.7051" filterUnits="userSpaceOnUse" color-interpolation-filters="sRGB">
<feFlood flood-opacity="0" result="BackgroundImageFix"/>
<feBlend mode="normal" in="SourceGraphic" in2="BackgroundImageFix" result="shape"/>
<feColorMatrix in="SourceAlpha" type="matrix" values="0 0 0 0 0 0 0 0 0 0 0 0 0 0 0 0 0 0 127 0" result="hardAlpha"/>
<feOffset dx="-24"/>
<feGaussianBlur stdDeviation="0.5"/>
<feComposite in2="hardAlpha" operator="arithmetic" k2="-1" k3="1"/>
<feColorMatrix type="matrix" values="0 0 0 0 0 0 0 0 0 0 0 0 0 0 0 0 0 0 0.2 0"/>
<feBlend mode="normal" in2="shape" result="effect1_innerShadow_680_34098"/>
</filter>
<filter id="filter3_ii_680_34098" x="97.813" y="23.4404" width="40.5596" height="40.5596" filterUnits="userSpaceOnUse" color-interpolation-filters="sRGB">
<feFlood flood-opacity="0" result="BackgroundImageFix"/>
<feBlend mode="normal" in="SourceGraphic" in2="BackgroundImageFix" result="shape"/>
<feColorMatrix in="SourceAlpha" type="matrix" values="0 0 0 0 0 0 0 0 0 0 0 0 0 0 0 0 0 0 127 0" result="hardAlpha"/>
<feOffset dx="1" dy="1"/>
<feGaussianBlur stdDeviation="2"/>
<feComposite in2="hardAlpha" operator="arithmetic" k2="-1" k3="1"/>
<feColorMatrix type="matrix" values="0 0 0 0 0 0 0 0 0 0 0 0 0 0 0 0 0 0 0.07 0"/>
<feBlend mode="normal" in2="shape" result="effect1_innerShadow_680_34098"/>
<feColorMatrix in="SourceAlpha" type="matrix" values="0 0 0 0 0 0 0 0 0 0 0 0 0 0 0 0 0 0 127 0" result="hardAlpha"/>
<feOffset dx="1" dy="1"/>
<feGaussianBlur stdDeviation="1"/>
<feComposite in2="hardAlpha" operator="arithmetic" k2="-1" k3="1"/>
<feColorMatrix type="matrix" values="0 0 0 0 1 0 0 0 0 1 0 0 0 0 1 0 0 0 0.2 0"/>
<feBlend mode="normal" in2="effect1_innerShadow_680_34098" result="effect2_innerShadow_680_34098"/>
</filter>
<filter id="filter4_ii_680_34098" x="89.9897" y="33.5361" width="39.1758" height="34.7109" filterUnits="userSpaceOnUse" color-interpolation-filters="sRGB">
<feFlood flood-opacity="0" result="BackgroundImageFix"/>
<feBlend mode="normal" in="SourceGraphic" in2="BackgroundImageFix" result="shape"/>
<feColorMatrix in="SourceAlpha" type="matrix" values="0 0 0 0 0 0 0 0 0 0 0 0 0 0 0 0 0 0 127 0" result="hardAlpha"/>
<feOffset dx="-20" dy="20"/>
<feGaussianBlur stdDeviation="8"/>
<feComposite in2="hardAlpha" operator="arithmetic" k2="-1" k3="1"/>
<feColorMatrix type="matrix" values="0 0 0 0 0 0 0 0 0 0 0 0 0 0 0 0 0 0 0.1 0"/>
<feBlend mode="normal" in2="shape" result="effect1_innerShadow_680_34098"/>
<feColorMatrix in="SourceAlpha" type="matrix" values="0 0 0 0 0 0 0 0 0 0 0 0 0 0 0 0 0 0 127 0" result="hardAlpha"/>
<feOffset dx="-2"/>
<feGaussianBlur stdDeviation="0.5"/>
<feComposite in2="hardAlpha" operator="arithmetic" k2="-1" k3="1"/>
<feColorMatrix type="matrix" values="0 0 0 0 1 0 0 0 0 1 0 0 0 0 1 0 0 0 0.9 0"/>
<feBlend mode="normal" in2="effect1_innerShadow_680_34098" result="effect2_innerShadow_680_34098"/>
</filter>
<filter id="filter5_f_680_34098" x="20.2651" y="105.858" width="119.272" height="32.6689" filterUnits="userSpaceOnUse" color-interpolation-filters="sRGB">
<feFlood flood-opacity="0" result="BackgroundImageFix"/>
<feBlend mode="normal" in="SourceGraphic" in2="BackgroundImageFix" result="shape"/>
<feGaussianBlur stdDeviation="1" result="effect1_foregroundBlur_680_34098"/>
</filter>
<filter id="filter6_f_680_34098" x="41.9082" y="44.2285" width="25.7065" height="50.1777" filterUnits="userSpaceOnUse" color-interpolation-filters="sRGB">
<feFlood flood-opacity="0" result="BackgroundImageFix"/>
<feBlend mode="normal" in="SourceGraphic" in2="BackgroundImageFix" result="shape"/>
<feGaussianBlur stdDeviation="1" result="effect1_foregroundBlur_680_34098"/>
</filter>
<filter id="filter7_f_680_34098" x="109.175" y="66.4092" width="32.5327" height="53.354" filterUnits="userSpaceOnUse" color-interpolation-filters="sRGB">
<feFlood flood-opacity="0" result="BackgroundImageFix"/>
<feBlend mode="normal" in="SourceGraphic" in2="BackgroundImageFix" result="shape"/>
<feGaussianBlur stdDeviation="1" result="effect1_foregroundBlur_680_34098"/>
</filter>
<filter id="filter8_di_680_34098" x="25.2197" y="115.571" width="109.363" height="23.668" filterUnits="userSpaceOnUse" color-interpolation-filters="sRGB">
<feFlood flood-opacity="0" result="BackgroundImageFix"/>
<feColorMatrix in="SourceAlpha" type="matrix" values="0 0 0 0 0 0 0 0 0 0 0 0 0 0 0 0 0 0 127 0" result="hardAlpha"/>
<feOffset dy="-0.5"/>
<feGaussianBlur stdDeviation="1"/>
<feComposite in2="hardAlpha" operator="out"/>
<feColorMatrix type="matrix" values="0 0 0 0 1 0 0 0 0 1 0 0 0 0 1 0 0 0 0.4 0"/>
<feBlend mode="normal" in2="BackgroundImageFix" result="effect1_dropShadow_680_34098"/>
<feBlend mode="normal" in="SourceGraphic" in2="effect1_dropShadow_680_34098" result="shape"/>
<feColorMatrix in="SourceAlpha" type="matrix" values="0 0 0 0 0 0 0 0 0 0 0 0 0 0 0 0 0 0 127 0" result="hardAlpha"/>
<feOffset/>
<feGaussianBlur stdDeviation="4"/>
<feComposite in2="hardAlpha" operator="arithmetic" k2="-1" k3="1"/>
<feColorMatrix type="matrix" values="0 0 0 0 0.641667 0 0 0 0 0.50786 0 0 0 0 0.034757 0 0 0 0.5 0"/>
<feBlend mode="normal" in2="shape" result="effect2_innerShadow_680_34098"/>
</filter>
<filter id="filter9_i_680_34098" x="25.8149" y="118.071" width="106.768" height="29.6992" filterUnits="userSpaceOnUse" color-interpolation-filters="sRGB">
<feFlood flood-opacity="0" result="BackgroundImageFix"/>
<feBlend mode="normal" in="SourceGraphic" in2="BackgroundImageFix" result="shape"/>
<feColorMatrix in="SourceAlpha" type="matrix" values="0 0 0 0 0 0 0 0 0 0 0 0 0 0 0 0 0 0 127 0" result="hardAlpha"/>
<feOffset dy="1"/>
<feGaussianBlur stdDeviation="2"/>
<feComposite in2="hardAlpha" operator="arithmetic" k2="-1" k3="1"/>
<feColorMatrix type="matrix" values="0 0 0 0 0.483333 0 0 0 0 0.400568 0 0 0 0 0.0161111 0 0 0 0.5 0"/>
<feBlend mode="normal" in2="shape" result="effect1_innerShadow_680_34098"/>
</filter>
<filter id="filter10_f_680_34098" x="86.0059" y="131.292" width="8.96045" height="10.7764" filterUnits="userSpaceOnUse" color-interpolation-filters="sRGB">
<feFlood flood-opacity="0" result="BackgroundImageFix"/>
<feBlend mode="normal" in="SourceGraphic" in2="BackgroundImageFix" result="shape"/>
<feGaussianBlur stdDeviation="0.25" result="effect1_foregroundBlur_680_34098"/>
</filter>
<linearGradient id="paint0_linear_680_34098" x1="44.7796" y1="71.9234" x2="69.2629" y2="71.9234" gradientUnits="userSpaceOnUse">
<stop stop-color="white" stop-opacity="0.7"/>
<stop offset="1" stop-color="white" stop-opacity="0"/>
</linearGradient>
<linearGradient id="paint1_linear_680_34098" x1="122.313" y1="72.9656" x2="122.313" y2="112.48" gradientUnits="userSpaceOnUse">
<stop stop-color="white" stop-opacity="0.4"/>
<stop offset="0.473958" stop-color="white" stop-opacity="0.8"/>
<stop offset="1" stop-color="white" stop-opacity="0.4"/>
</linearGradient>
<radialGradient id="paint2_radial_680_34098" cx="0" cy="0" r="1" gradientUnits="userSpaceOnUse" gradientTransform="translate(84.4754 135.681) rotate(-115.204) scale(19.4634 22.9891)">
<stop stop-color="#FFE050"/>
<stop offset="1" stop-color="#F3CB12"/>
</radialGradient>
<linearGradient id="paint3_linear_680_34098" x1="90.4295" y1="140.138" x2="87.0769" y2="135.157" gradientUnits="userSpaceOnUse">
<stop stop-color="white" stop-opacity="0.7"/>
<stop offset="1" stop-color="white" stop-opacity="0"/>
</linearGradient>
</defs>
</svg>
