<svg width="21" height="20" viewBox="0 0 21 20" fill="none" xmlns="http://www.w3.org/2000/svg">
<path fill-rule="evenodd" clip-rule="evenodd" d="M10.5002 2.5C10.1635 2.58956 9.45639 3.26094 9.32171 5.22727C9.25016 7.08333 9.25016 7.91667 9.25016 8.08922L3.8335 12.0833V13.3333L9.25016 11.6667C9.25016 13.9583 9.4585 15 9.65841 15.6986L7.5835 16.9402V17.5L10.0835 17.0833C10.0835 17.2917 10.2918 17.5 10.5002 17.5V2.5Z" fill="#9E9E9E"/>
<path fill-rule="evenodd" clip-rule="evenodd" d="M10.5003 2.5C10.837 2.58956 11.5441 3.26094 11.6788 5.22727C11.7503 7.08333 11.7503 7.91667 11.7503 8.08922L17.167 12.0833V13.3333L11.7503 11.6667C11.7503 13.9583 11.542 15 11.3421 15.6986L13.417 16.9402V17.5L10.917 17.0833C10.917 17.2917 10.7087 17.5 10.5003 17.5V2.5Z" fill="#E1E1E1"/>
</svg>
