<svg width="32" height="32" viewBox="0 0 32 32" fill="none" xmlns="http://www.w3.org/2000/svg">
<path d="M15.3678 1.37044C15.6167 0.830947 16.3834 0.830947 16.6323 1.37044L20.351 9.43264C20.4524 9.65252 20.6608 9.80391 20.9013 9.83242L29.718 10.8778C30.308 10.9477 30.545 11.677 30.1088 12.0803L23.5903 18.1084C23.4125 18.2728 23.3329 18.5178 23.3801 18.7553L25.1105 27.4636C25.2262 28.0463 24.6059 28.497 24.0875 28.2068L16.3401 23.8701C16.1288 23.7519 15.8713 23.7519 15.66 23.8701L7.91263 28.2068C7.39421 28.497 6.77389 28.0463 6.88968 27.4636L8.62 18.7553C8.66719 18.5178 8.5876 18.2728 8.40982 18.1084L1.89136 12.0803C1.45517 11.677 1.69211 10.9477 2.2821 10.8778L11.0989 9.83242C11.3393 9.80391 11.5477 9.65252 11.6491 9.43264L15.3678 1.37044Z" fill="white"/>
<path fill-rule="evenodd" clip-rule="evenodd" d="M11.6491 9.43264C11.5477 9.65252 11.3393 9.80391 11.0989 9.83242L2.2821 10.8778C1.69211 10.9477 1.45517 11.677 1.89136 12.0803L8.40982 18.1084C8.5876 18.2728 8.66719 18.5178 8.62 18.7553L6.88968 27.4636C6.77389 28.0463 7.39421 28.497 7.91263 28.2068L15.66 23.8701C15.8713 23.7519 16.1288 23.7519 16.3401 23.8701L24.0875 28.2068C24.6059 28.497 25.2262 28.0463 25.1105 27.4636L23.3801 18.7553C23.3329 18.5178 23.4125 18.2728 23.5903 18.1084L30.1088 12.0803C30.545 11.677 30.308 10.9477 29.718 10.8778L20.9013 9.83242C20.6608 9.80391 20.4524 9.65252 20.351 9.43264L16.6323 1.37044C16.3834 0.830947 15.6167 0.830947 15.3678 1.37044L11.6491 9.43264ZM16.0001 4.9866L13.5458 10.3075C13.1401 11.187 12.3066 11.7926 11.3448 11.9066L5.5259 12.5965L9.82796 16.5749C10.5391 17.2325 10.8574 18.2124 10.6687 19.1624L9.52668 24.9096L14.6398 22.0475C15.4849 21.5745 16.5152 21.5745 17.3603 22.0475L22.4735 24.9096L21.3315 19.1624C21.1427 18.2124 21.4611 17.2325 22.1722 16.5749L26.4742 12.5965L20.6553 11.9066C19.6935 11.7926 18.86 11.187 18.4544 10.3075L16.0001 4.9866Z" fill="#E1E1E1"/>
</svg>
